<svg id="visual" viewBox="0 0 1260 600" width="1260" height="600" xmlns="http://www.w3.org/2000/svg" xmlns:xlink="http://www.w3.org/1999/xlink" version="1.1"><rect x="0" y="0" width="1260" height="600" fill="#ffffff"></rect><path d="M0 366L26.3 381C52.7 396 105.3 426 157.8 431.2C210.3 436.3 262.7 416.7 315.2 400.3C367.7 384 420.3 371 472.8 378C525.3 385 577.7 412 630.2 419.7C682.7 427.3 735.3 415.7 787.8 406.2C840.3 396.7 892.7 389.3 945.2 395.2C997.7 401 1050.3 420 1102.8 416.8C1155.3 413.7 1207.7 388.3 1233.8 375.7L1260 363L1260 601L1233.8 601C1207.7 601 1155.3 601 1102.8 601C1050.3 601 997.7 601 945.2 601C892.7 601 840.3 601 787.8 601C735.3 601 682.7 601 630.2 601C577.7 601 525.3 601 472.8 601C420.3 601 367.7 601 315.2 601C262.7 601 210.3 601 157.8 601C105.3 601 52.7 601 26.3 601L0 601Z" fill="#028ba2"></path><path d="M0 459L26.3 458.5C52.7 458 105.3 457 157.8 454.8C210.3 452.7 262.7 449.3 315.2 440C367.7 430.7 420.3 415.3 472.8 418.8C525.3 422.3 577.7 444.7 630.2 453.3C682.7 462 735.3 457 787.8 445.5C840.3 434 892.7 416 945.2 411.3C997.7 406.7 1050.3 415.3 1102.8 420C1155.3 424.7 1207.7 425.3 1233.8 425.7L1260 426L1260 601L1233.8 601C1207.7 601 1155.3 601 1102.8 601C1050.3 601 997.7 601 945.2 601C892.7 601 840.3 601 787.8 601C735.3 601 682.7 601 630.2 601C577.7 601 525.3 601 472.8 601C420.3 601 367.7 601 315.2 601C262.7 601 210.3 601 157.8 601C105.3 601 52.7 601 26.3 601L0 601Z" fill="#18b4cf"></path><path d="M0 488L26.3 484.8C52.7 481.7 105.3 475.3 157.8 474.8C210.3 474.3 262.7 479.7 315.2 481.7C367.7 483.7 420.3 482.3 472.8 475C525.3 467.7 577.7 454.3 630.2 449.8C682.7 445.3 735.3 449.7 787.8 457.3C840.3 465 892.7 476 945.2 474.2C997.7 472.3 1050.3 457.7 1102.8 451C1155.3 444.3 1207.7 445.7 1233.8 446.3L1260 447L1260 601L1233.8 601C1207.7 601 1155.3 601 1102.8 601C1050.3 601 997.7 601 945.2 601C892.7 601 840.3 601 787.8 601C735.3 601 682.7 601 630.2 601C577.7 601 525.3 601 472.8 601C420.3 601 367.7 601 315.2 601C262.7 601 210.3 601 157.8 601C105.3 601 52.7 601 26.3 601L0 601Z" fill="#2adefd"></path><path d="M0 490L26.3 487C52.7 484 105.3 478 157.8 477.7C210.3 477.3 262.7 482.7 315.2 484.7C367.7 486.7 420.3 485.3 472.8 482.3C525.3 479.3 577.7 474.7 630.2 477.7C682.7 480.7 735.3 491.3 787.8 497.3C840.3 503.3 892.7 504.7 945.2 502C997.7 499.3 1050.3 492.7 1102.8 486.5C1155.3 480.3 1207.7 474.7 1233.8 471.8L1260 469L1260 601L1233.8 601C1207.7 601 1155.3 601 1102.8 601C1050.3 601 997.7 601 945.2 601C892.7 601 840.3 601 787.8 601C735.3 601 682.7 601 630.2 601C577.7 601 525.3 601 472.8 601C420.3 601 367.7 601 315.2 601C262.7 601 210.3 601 157.8 601C105.3 601 52.7 601 26.3 601L0 601Z" fill="#2adefd"></path><path d="M0 526L26.3 521.7C52.7 517.3 105.3 508.7 157.8 507.8C210.3 507 262.7 514 315.2 518.3C367.7 522.7 420.3 524.3 472.8 523.3C525.3 522.3 577.7 518.7 630.2 517.8C682.7 517 735.3 519 787.8 520.2C840.3 521.3 892.7 521.7 945.2 520.2C997.7 518.7 1050.3 515.3 1102.8 514.3C1155.3 513.3 1207.7 514.7 1233.8 515.3L1260 516L1260 601L1233.8 601C1207.7 601 1155.3 601 1102.8 601C1050.3 601 997.7 601 945.2 601C892.7 601 840.3 601 787.8 601C735.3 601 682.7 601 630.2 601C577.7 601 525.3 601 472.8 601C420.3 601 367.7 601 315.2 601C262.7 601 210.3 601 157.8 601C105.3 601 52.7 601 26.3 601L0 601Z" fill="#18b4cf"></path><path d="M0 536L26.3 540.5C52.7 545 105.3 554 157.8 553.7C210.3 553.3 262.7 543.7 315.2 540.7C367.7 537.7 420.3 541.3 472.8 542.3C525.3 543.3 577.7 541.7 630.2 543C682.7 544.3 735.3 548.7 787.8 551.2C840.3 553.7 892.7 554.3 945.2 553.7C997.7 553 1050.3 551 1102.8 549.7C1155.3 548.3 1207.7 547.7 1233.8 547.3L1260 547L1260 601L1233.8 601C1207.7 601 1155.3 601 1102.8 601C1050.3 601 997.7 601 945.2 601C892.7 601 840.3 601 787.8 601C735.3 601 682.7 601 630.2 601C577.7 601 525.3 601 472.8 601C420.3 601 367.7 601 315.2 601C262.7 601 210.3 601 157.8 601C105.3 601 52.7 601 26.3 601L0 601Z" fill="#028ba2"></path></svg>