<svg id="visual" viewBox="0 0 1260 600" width="1260" height="600" xmlns="http://www.w3.org/2000/svg" xmlns:xlink="http://www.w3.org/1999/xlink" version="1.1"><rect x="0" y="0" width="1260" height="600" fill="#ffffff"></rect><path d="M0 490L35 485.8C70 481.7 140 473.3 210 479.3C280 485.3 350 505.7 420 518.7C490 531.7 560 537.3 630 528.2C700 519 770 495 840 481.7C910 468.3 980 465.7 1050 475.5C1120 485.3 1190 507.7 1225 518.8L1260 530L1260 601L1225 601C1190 601 1120 601 1050 601C980 601 910 601 840 601C770 601 700 601 630 601C560 601 490 601 420 601C350 601 280 601 210 601C140 601 70 601 35 601L0 601Z" fill="#028ba2"></path><path d="M0 499L35 498.2C70 497.3 140 495.7 210 503.7C280 511.7 350 529.3 420 529.8C490 530.3 560 513.7 630 503C700 492.3 770 487.7 840 488.7C910 489.7 980 496.3 1050 496.2C1120 496 1190 489 1225 485.5L1260 482L1260 601L1225 601C1190 601 1120 601 1050 601C980 601 910 601 840 601C770 601 700 601 630 601C560 601 490 601 420 601C350 601 280 601 210 601C140 601 70 601 35 601L0 601Z" fill="#259bb0"></path><path d="M0 515L35 521C70 527 140 539 210 543.5C280 548 350 545 420 540C490 535 560 528 630 524.2C700 520.3 770 519.7 840 516C910 512.3 980 505.7 1050 502.8C1120 500 1190 501 1225 501.5L1260 502L1260 601L1225 601C1190 601 1120 601 1050 601C980 601 910 601 840 601C770 601 700 601 630 601C560 601 490 601 420 601C350 601 280 601 210 601C140 601 70 601 35 601L0 601Z" fill="#3aabbf"></path><path d="M0 529L35 526.5C70 524 140 519 210 521.3C280 523.7 350 533.3 420 538.3C490 543.3 560 543.7 630 539.8C700 536 770 528 840 523.7C910 519.3 980 518.7 1050 522.7C1120 526.7 1190 535.3 1225 539.7L1260 544L1260 601L1225 601C1190 601 1120 601 1050 601C980 601 910 601 840 601C770 601 700 601 630 601C560 601 490 601 420 601C350 601 280 601 210 601C140 601 70 601 35 601L0 601Z" fill="#42b2c5"></path><path d="M0 554L35 552.2C70 550.3 140 546.7 210 546.8C280 547 350 551 420 551.7C490 552.3 560 549.7 630 550C700 550.3 770 553.7 840 554.8C910 556 980 555 1050 551.8C1120 548.7 1190 543.3 1225 540.7L1260 538L1260 601L1225 601C1190 601 1120 601 1050 601C980 601 910 601 840 601C770 601 700 601 630 601C560 601 490 601 420 601C350 601 280 601 210 601C140 601 70 601 35 601L0 601Z" fill="#3aabbf"></path><path d="M0 576L35 574.8C70 573.7 140 571.3 210 568C280 564.7 350 560.3 420 560.5C490 560.7 560 565.3 630 567.7C700 570 770 570 840 569.8C910 569.7 980 569.3 1050 567.5C1120 565.7 1190 562.3 1225 560.7L1260 559L1260 601L1225 601C1190 601 1120 601 1050 601C980 601 910 601 840 601C770 601 700 601 630 601C560 601 490 601 420 601C350 601 280 601 210 601C140 601 70 601 35 601L0 601Z" fill="#259bb0"></path><path d="M0 585L35 585.3C70 585.7 140 586.3 210 583.8C280 581.3 350 575.7 420 574.5C490 573.3 560 576.7 630 577.8C700 579 770 578 840 575.8C910 573.7 980 570.3 1050 570C1120 569.7 1190 572.3 1225 573.7L1260 575L1260 601L1225 601C1190 601 1120 601 1050 601C980 601 910 601 840 601C770 601 700 601 630 601C560 601 490 601 420 601C350 601 280 601 210 601C140 601 70 601 35 601L0 601Z" fill="#028ba2"></path></svg>