<svg xmlns="http://www.w3.org/2000/svg" width="30" height="35" viewBox="0 0 500.002 550">
  <defs>
    <style>
      .cls-1 {
        fill: #fff;
        fill-rule: evenodd;
      }
    </style>
  </defs>
  <path id="Rectángulo_1" data-name="Rectángulo 1" class="cls-1" d="M1184.87,459.849L921.583,287.054,748.859,454l69.112,45.359L944.61,398.5l250.07,199.171-60.11,47.875,50.3-48.613L921.583,424.134l-93.02,89.906,6.1-4.858L1097.43,681.636,963.174,811.4,694.68,597.554,806.49,508.5l-86.056-68.54L944.61,261.416l250.07,199.171-60.11,47.875ZM792.2,549.421l0.007,0-45.359,43.842-2.259,1.8,0.218,0.173-20.4,19.717L970.2,776.267,980.4,766.4l74.548-59.375L829.485,527.451l-0.2.162-5.891-5.205-0.557.4-1.588-1.043-2.366,2.287-0.255-.168Z" transform="translate(-694.688 -261.406)"/>
</svg>
